<svg width="21" height="22" viewBox="0 0 21 22" fill="none" xmlns="http://www.w3.org/2000/svg">
<path d="M16.82 9.60244V18.6989C16.82 18.9586 16.7688 19.2158 16.6695 19.4557C16.5701 19.6956 16.4244 19.9136 16.2408 20.0972C16.0572 20.2809 15.8392 20.4265 15.5992 20.5259C15.3593 20.6253 15.1022 20.6764 14.8425 20.6764H2.9775C2.45303 20.6764 1.95005 20.4681 1.5792 20.0972C1.20834 19.7264 1 19.2234 1 18.6989V6.83394C1 6.30948 1.20834 5.80649 1.5792 5.43564C1.95005 5.06479 2.45303 4.85645 2.9775 4.85645H11.2573" stroke="#353535" stroke-width="1.5" stroke-linecap="round" stroke-linejoin="round"/>
<path d="M20.5745 1.16044C20.5022 1.08106 20.4146 1.01716 20.317 0.972585C20.2194 0.928012 20.1137 0.903697 20.0064 0.90111C19.8991 0.898522 19.7924 0.917715 19.6927 0.95753C19.5931 0.997344 19.5025 1.05695 19.4265 1.13275L18.815 1.74133C18.7409 1.81549 18.6992 1.91605 18.6992 2.0209C18.6992 2.12575 18.7409 2.2263 18.815 2.30047L19.3756 2.8601C19.4124 2.89702 19.456 2.92632 19.5041 2.94631C19.5523 2.9663 19.6038 2.97659 19.6559 2.97659C19.708 2.97659 19.7596 2.9663 19.8077 2.94631C19.8558 2.92632 19.8995 2.89702 19.9362 2.8601L20.5324 2.26685C20.834 1.96578 20.8622 1.47536 20.5745 1.16044ZM17.5786 2.97727L8.65411 11.8859C8.60001 11.9398 8.56068 12.0067 8.53991 12.0802L8.12711 13.3097C8.11722 13.3431 8.11652 13.3785 8.12508 13.4122C8.13365 13.4459 8.15115 13.4767 8.17576 13.5013C8.20036 13.5259 8.23115 13.5434 8.26488 13.552C8.2986 13.5605 8.33402 13.5598 8.36738 13.55L9.5959 13.1372C9.66939 13.1164 9.7363 13.0771 9.79019 13.023L18.6988 4.09752C18.7812 4.01422 18.8275 3.90176 18.8275 3.78458C18.8275 3.6674 18.7812 3.55494 18.6988 3.47164L18.2069 2.97727C18.1235 2.89409 18.0105 2.84739 17.8927 2.84739C17.7749 2.84739 17.662 2.89409 17.5786 2.97727Z" fill="#353535"/>
</svg>
