<svg width="52" height="51" viewBox="0 0 52 51" fill="none" xmlns="http://www.w3.org/2000/svg">
<path d="M0.423828 0H51.248V26.1165C51.248 39.3713 40.5029 50.1165 27.248 50.1165H0.423828V0Z" fill="#57941B" fill-opacity="0.87"/>
<path d="M22.8359 35.0581H20.8359C16.8359 35.0581 15.8359 34.0581 15.8359 30.0581V20.0581C15.8359 16.0581 16.8359 15.0581 20.8359 15.0581H22.3359C23.8359 15.0581 24.1659 15.4981 24.7359 16.2581L26.2359 18.2581C26.6159 18.7581 26.8359 19.0581 27.8359 19.0581H30.8359C34.8359 19.0581 35.8359 20.0581 35.8359 24.0581V26.0581" stroke="white" stroke-width="1.5" stroke-miterlimit="10" stroke-linecap="round" stroke-linejoin="round"/>
<path d="M27.5965 31.3781C25.2465 31.5481 25.2465 34.9481 27.5965 35.1181H33.1565C33.8265 35.1181 34.4865 34.8681 34.9765 34.4181C36.6265 32.9781 35.7465 30.0981 33.5765 29.8281C32.7965 25.1381 26.0165 26.9181 27.6165 31.3881" stroke="white" stroke-width="1.5" stroke-miterlimit="10" stroke-linecap="round" stroke-linejoin="round"/>
</svg>
