<svg width="52" height="51" viewBox="0 0 52 51" fill="none" xmlns="http://www.w3.org/2000/svg">
<path d="M0.546875 0.293213H51.3711V26.4097C51.3711 39.6645 40.6259 50.4097 27.3711 50.4097H0.546875V0.293213Z" fill="#8642F4" fill-opacity="0.87"/>
<path d="M17.8887 28.2415L29.8387 16.2915M25.0597 30.6415L26.2597 29.4415M27.7517 27.9505L30.1417 25.5605" stroke="white" stroke-width="1.5" stroke-miterlimit="10" stroke-linecap="round" stroke-linejoin="round"/>
<path d="M15.9593 34.3596H35.9593M17.5603 22.6006L24.2003 15.9606C26.3203 13.8406 27.3803 13.8306 29.4803 15.9306L34.3903 20.8406C36.4903 22.9406 36.4803 24.0006 34.3603 26.1206L27.7203 32.7606C25.6003 34.8806 24.5403 34.8906 22.4403 32.7906L17.5303 27.8806C15.4303 25.7806 15.4303 24.7306 17.5603 22.6006Z" stroke="white" stroke-width="1.5" stroke-linecap="round" stroke-linejoin="round"/>
</svg>
