<svg width="52" height="51" viewBox="0 0 52 51" fill="none" xmlns="http://www.w3.org/2000/svg">
<path d="M0.546875 0.803223H51.3711V26.9197C51.3711 40.1745 40.6259 50.9197 27.3711 50.9197H0.546875V0.803223Z" fill="#1FB812"/>
<path d="M17.8887 28.7515L29.8387 16.8015M25.0597 31.1515L26.2597 29.9515M27.7517 28.4605L30.1417 26.0705" stroke="white" stroke-width="1.5" stroke-miterlimit="10" stroke-linecap="round" stroke-linejoin="round"/>
<path d="M15.9593 34.8696H35.9593M17.5603 23.1106L24.2003 16.4706C26.3203 14.3506 27.3803 14.3406 29.4803 16.4406L34.3903 21.3506C36.4903 23.4506 36.4803 24.5106 34.3603 26.6306L27.7203 33.2706C25.6003 35.3906 24.5403 35.4006 22.4403 33.3006L17.5303 28.3906C15.4303 26.2906 15.4303 25.2406 17.5603 23.1106Z" stroke="white" stroke-width="1.5" stroke-linecap="round" stroke-linejoin="round"/>
</svg>
