<svg width="130" height="43" viewBox="0 0 130 43" fill="none" xmlns="http://www.w3.org/2000/svg">
<g clip-path="url(#clip0_261_820)">
<path d="M46.0084 14.7761H41.2546V17.6487H45.6687V19.9217H41.2546V23.2954H46.0084V25.5863H38.4844V12.5031H46.0084V14.7761ZM47.6981 16.2795C48.8537 15.677 50.1198 15.3757 51.4958 15.3757C52.8717 15.3757 53.9114 15.671 54.6144 16.2617C55.3232 16.8523 55.6778 17.7382 55.6778 18.9195V25.5863H53.7745L53.2473 24.2261H53.1756C52.7169 24.8108 52.2465 25.2135 51.7638 25.4342C51.2815 25.655 50.6471 25.7653 49.8606 25.7653C48.9075 25.7653 48.1511 25.4909 47.591 24.942C47.0428 24.3932 46.769 23.6027 46.769 22.5706C46.769 21.5385 47.1354 20.7689 47.8678 20.2618C48.6006 19.7487 49.7237 19.4653 51.2365 19.4117L52.9701 19.3579V18.9195C52.9701 17.9052 52.452 17.3981 51.4153 17.3981C50.617 17.3981 49.6787 17.6398 48.6006 18.123L47.6981 16.2795ZM49.5659 22.6153C49.5659 23.3849 50.0066 23.7697 50.8881 23.7697C51.5255 23.7697 52.0318 23.5878 52.4074 23.2238C52.7825 22.8599 52.9701 22.3767 52.9701 21.7742V20.9508L51.9159 20.9867C51.1237 21.0105 50.5339 21.1537 50.1465 21.4162C49.7592 21.6787 49.5659 22.0784 49.5659 22.6153ZM60.1914 23.7697C61.18 23.7697 61.6745 23.4834 61.6745 22.9106C61.6745 22.6183 61.5433 22.3856 61.2814 22.2126C61.0252 22.0396 60.4354 21.7473 59.512 21.3356C58.7438 21.0135 58.1776 20.7152 57.8143 20.4408C57.4571 20.1663 57.1948 19.8531 57.0282 19.5011C56.8673 19.1432 56.7868 18.7047 56.7868 18.1856C56.7868 17.2967 57.1292 16.6106 57.8143 16.1274C58.5055 15.6382 59.4705 15.3936 60.7095 15.3936C61.9486 15.3936 63.1313 15.6561 64.2571 16.1811L63.4347 18.1499C62.8571 17.9052 62.3596 17.7233 61.9425 17.604C61.5315 17.4787 61.1175 17.416 60.7008 17.416C59.8963 17.416 59.4941 17.6338 59.4941 18.0693C59.4941 18.3139 59.6253 18.5287 59.8876 18.7136C60.1495 18.8926 60.6916 19.1461 61.5136 19.4743C62.3417 19.8024 62.9376 20.1067 63.3009 20.3871C64.0097 20.924 64.3642 21.6876 64.3642 22.678C64.3642 23.6683 64.0066 24.432 63.2918 24.9689C62.5769 25.4999 61.5433 25.7653 60.1914 25.7653C58.8391 25.7653 57.7072 25.5715 56.7956 25.1836V22.9285C57.308 23.1672 57.8799 23.367 58.5112 23.5281C59.1487 23.6892 59.7088 23.7697 60.1914 23.7697ZM65.9739 29.9892C65.521 29.9892 65.0593 29.9385 64.5888 29.8371V27.6715C64.9045 27.749 65.2617 27.7878 65.6609 27.7878C66.6678 27.7878 67.3708 27.1942 67.7696 26.007L67.9305 25.5148L63.9632 15.5815H66.9476L68.8333 21.2104C68.9881 21.6936 69.0983 22.2723 69.1638 22.9465H69.2172C69.2771 22.3618 69.4052 21.7831 69.6015 21.2104L71.4514 15.5815H74.3733L70.1467 26.866C69.7594 27.8981 69.2084 28.6767 68.4936 29.2017C67.7848 29.7267 66.9446 29.9892 65.9739 29.9892ZM80.8759 15.5994C81.3049 15.5994 81.6949 15.6352 82.0464 15.7068L81.8409 17.0849C81.4356 16.9954 81.0784 16.9507 80.7684 16.9507C79.9705 16.9507 79.2911 17.2729 78.7314 17.9172C78.1713 18.5555 77.8915 19.3579 77.8915 20.3244V25.5863H76.408V15.7784H77.6322L77.8019 17.595H77.8736C78.2369 16.9507 78.6746 16.4585 79.187 16.1185C79.7051 15.7724 80.2682 15.5994 80.8759 15.5994ZM86.9173 25.7653C85.4697 25.7653 84.3259 25.3238 83.486 24.4409C82.6522 23.552 82.2351 22.32 82.2351 20.745C82.2351 19.17 82.6225 17.9202 83.3968 16.9954C84.1772 16.0648 85.2016 15.5994 86.4705 15.5994C87.7454 15.5994 88.7374 16.0081 89.4461 16.8254C90.161 17.6189 90.5186 18.6808 90.5186 20.0112V20.9508H83.7719C83.8017 22.0963 84.0907 22.9703 84.6389 23.5729C85.1868 24.1695 85.976 24.4677 87.0069 24.4677C88.0374 24.4677 89.0649 24.247 90.0897 23.8055V25.13C89.5712 25.3567 89.0737 25.5177 88.5971 25.6132C88.1266 25.7146 87.5666 25.7653 86.9173 25.7653ZM88.928 19.7427C88.928 18.8121 88.7195 18.0992 88.3024 17.604C87.8853 17.1028 87.2867 16.8523 86.5063 16.8523C85.732 16.8523 85.1094 17.1058 84.6389 17.6129C84.1681 18.12 83.8913 18.83 83.8078 19.7427H88.928ZM95.8363 25.5863H94.1028L90.3855 15.7784H91.9761L94.0849 21.5952C94.5732 22.9912 94.8535 23.8742 94.9248 24.244H94.9964C95.0559 23.9338 95.2553 23.2984 95.595 22.3379C95.9347 21.3715 96.7239 19.1849 97.963 15.7784H99.5536L95.8363 25.5863ZM99.9032 13.1206C99.9032 12.7925 99.9836 12.5479 100.144 12.3868C100.305 12.2197 100.514 12.1362 100.77 12.1362C101.026 12.1362 101.238 12.2197 101.404 12.3868C101.571 12.5538 101.654 12.7984 101.654 13.1206C101.654 13.4427 101.571 13.6903 101.404 13.8633C101.238 14.0304 101.026 14.1139 100.77 14.1139C100.514 14.1139 100.305 14.0304 100.144 13.8633C99.9836 13.6903 99.9032 13.4427 99.9032 13.1206ZM101.511 25.5863H100.028V15.7784H101.511V25.5863ZM107.696 25.7653C106.248 25.7653 105.105 25.3238 104.265 24.4409C103.431 23.552 103.014 22.32 103.014 20.745C103.014 19.17 103.401 17.9202 104.175 16.9954C104.956 16.0648 105.98 15.5994 107.249 15.5994C108.524 15.5994 109.516 16.0081 110.225 16.8254C110.94 17.6189 111.297 18.6808 111.297 20.0112V20.9508H104.551C104.58 22.0963 104.869 22.9703 105.417 23.5729C105.965 24.1695 106.755 24.4677 107.785 24.4677C108.816 24.4677 109.844 24.247 110.868 23.8055V25.13C110.35 25.3567 109.852 25.5177 109.376 25.6132C108.905 25.7146 108.345 25.7653 107.696 25.7653ZM109.706 19.7427C109.706 18.8121 109.498 18.0992 109.081 17.604C108.664 17.1028 108.065 16.8523 107.285 16.8523C106.51 16.8523 105.888 17.1058 105.417 17.6129C104.947 18.12 104.67 18.83 104.586 19.7427H109.706ZM122.494 25.5863H120.734L118.938 19.8322C118.855 19.5757 118.643 18.7763 118.304 17.434H118.232C117.982 18.5138 117.773 19.3192 117.607 19.8501L115.757 25.5863H114.041L111.369 15.7784H112.924C113.639 18.5347 114.119 20.4109 114.363 21.4072C114.703 22.7317 114.893 23.5997 114.935 24.0113H115.007C115.06 23.7071 115.167 23.2656 115.328 22.6869C115.489 22.1023 115.614 21.6757 115.703 21.4072L117.5 15.7784H119.108L120.859 21.4072C121.205 22.4751 121.431 23.3372 121.538 23.9935H121.61C121.64 23.7787 121.696 23.4863 121.779 23.1165C121.863 22.7406 122.491 20.2946 123.665 15.7784H125.202L122.494 25.5863Z" fill="white"/>
<path d="M13.4843 39.7663C0.403603 30.9574 -3.07 13.1967 5.72579 0.0966797L32.8204 18.3428L16.8943 42.0626L13.4843 39.7663Z" fill="#4F46BA"/>
<path d="M9.03605 24.4022C9.01165 24.4022 8.82865 24.4999 8.48705 24.6954C7.60864 25.1842 6.96203 25.4285 6.54723 25.4285C5.81522 25.4285 5.44922 25.062 5.44922 24.3289C5.44922 23.8646 5.81522 23.4858 6.54723 23.1926C6.66923 23.1437 6.96203 22.9971 7.42564 22.7527C7.88924 22.5084 8.15764 22.3618 8.23084 22.3129C8.13324 22.093 8.08444 21.7631 8.08444 21.3232C8.08444 19.1239 8.85305 17.2423 10.3903 15.6784C11.9275 14.1145 13.3305 13.3325 14.5993 13.3325C15.8681 13.3325 16.8685 13.638 17.6005 14.2489C18.3325 14.8354 18.6985 15.5562 18.6985 16.4115C18.6985 17.2423 18.5033 17.9632 18.1129 18.5741C17.7225 19.185 17.1125 19.7837 16.2829 20.3702C15.1361 21.201 13.4647 22.1663 11.2687 23.2659C12.2447 23.9746 13.5989 24.3289 15.3313 24.3289C17.0637 24.3289 18.7717 24.0479 20.4554 23.4858C20.9678 23.3148 21.2606 23.2292 21.3338 23.2292C22.0658 23.2292 22.4318 23.5958 22.4318 24.3289C22.4318 24.8665 22.0658 25.2575 21.3338 25.5018C19.2841 26.1861 17.3077 26.5282 15.4045 26.5282C12.6961 26.5282 10.5733 25.8195 9.03605 24.4022ZM10.2805 21.3232C14.4285 19.2461 16.5025 17.6822 16.5025 16.6314C16.5025 15.8983 15.8925 15.5318 14.6725 15.5318C13.9405 15.5318 13.0255 16.1183 11.9275 17.2912C10.8295 18.4397 10.2805 19.7837 10.2805 21.3232Z" fill="white"/>
</g>
<defs>
<clipPath id="clip0_261_820">
<rect width="128.864" height="42" fill="white" transform="translate(0.5 0.0625)"/>
</clipPath>
</defs>
</svg>
