<svg width="29" height="28" viewBox="0 0 29 28" fill="none" xmlns="http://www.w3.org/2000/svg">
<path d="M24.2513 4.18996C21.5776 1.55474 18.3268 0.237129 14.499 0.237129C10.7674 0.237129 7.52626 1.55474 4.77563 4.18996C2.12117 6.84442 0.793945 10.0952 0.793945 13.9422C0.793945 17.7892 2.12117 21.0304 4.77563 23.6656C6.10286 25.0121 7.57916 26.0315 9.20454 26.724C10.8299 27.4165 12.5947 27.7627 14.499 27.7627C18.3845 27.7627 21.6353 26.397 24.2513 23.6656C26.8865 21.0304 28.2041 17.7941 28.2041 13.9566C28.2041 10.1192 26.8865 6.86366 24.2513 4.18996ZM23.3857 5.05555C24.5975 6.30583 25.5016 7.66191 26.0978 9.12379C26.6941 10.5857 26.9923 12.1918 26.9923 13.9422C26.9923 17.4815 25.7901 20.4437 23.3857 22.8289C22.1739 24.0599 20.8226 24.9928 19.3319 25.6276C17.8411 26.2623 16.2254 26.5797 14.4846 26.5797C12.7438 26.5797 11.1473 26.272 9.69503 25.6564C8.24278 25.0409 6.92036 24.0984 5.72777 22.8289C4.51596 21.6171 3.59267 20.2658 2.95791 18.7751C2.32314 17.2843 2.00576 15.6686 2.00576 13.9278C2.00576 12.187 2.30872 10.5857 2.91463 9.12379C3.52053 7.66191 4.45825 6.30583 5.72777 5.05555C6.93959 3.84373 8.28605 2.91563 9.76717 2.27125C11.2483 1.62687 12.8352 1.30468 14.5279 1.30468C16.2206 1.30468 17.8171 1.62206 19.3174 2.25682C20.7408 2.89159 22.0969 3.82449 23.3857 5.05555ZM12.7101 10.8261V18.0393L18.5961 14.4327L12.7101 10.8261Z" fill="#F1573B"/>
</svg>
