<svg width="52" height="51" viewBox="0 0 52 51" fill="none" xmlns="http://www.w3.org/2000/svg">
<path d="M0.769531 0.26416H51.5938V26.3806C51.5938 39.6354 40.8486 50.3806 27.5938 50.3806H0.769531V0.26416Z" fill="#7B42F4" fill-opacity="0.87"/>
<path d="M18.1113 28.2125L30.0613 16.2625M25.2823 30.6125L26.4823 29.4125M27.9743 27.9215L30.3643 25.5315" stroke="white" stroke-width="1.5" stroke-miterlimit="10" stroke-linecap="round" stroke-linejoin="round"/>
<path d="M16.1819 34.3305H36.1819M17.7829 22.5715L24.4229 15.9315C26.5429 13.8115 27.6029 13.8015 29.7029 15.9015L34.6129 20.8115C36.7129 22.9115 36.7029 23.9715 34.5829 26.0915L27.9429 32.7315C25.8229 34.8515 24.7629 34.8615 22.6629 32.7615L17.7529 27.8515C15.6529 25.7515 15.6529 24.7015 17.7829 22.5715Z" stroke="white" stroke-width="1.5" stroke-linecap="round" stroke-linejoin="round"/>
</svg>
