<svg width="9" height="8" viewBox="0 0 9 8" fill="none" xmlns="http://www.w3.org/2000/svg">
<path fill-rule="evenodd" clip-rule="evenodd" d="M7.46013 0.740296L2.69014 5.3503L1.43014 3.9903C1.31096 3.88633 1.1601 3.82578 1.00211 3.81852C0.844132 3.81126 0.688346 3.8577 0.560136 3.9503C0.436091 4.03744 0.348937 4.16764 0.315661 4.31554C0.282384 4.46343 0.305369 4.61842 0.380135 4.7503L1.88014 7.2003C2.03014 7.4203 2.29014 7.5603 2.57014 7.5603C2.85014 7.5603 3.10014 7.4203 3.25014 7.2003C3.49014 6.8903 8.07014 1.4203 8.07014 1.4203C8.67014 0.820296 7.94014 0.270296 7.47014 0.740296L7.46013 0.740296Z" fill="#7459D9"/>
</svg>
