<svg width="52" height="51" viewBox="0 0 52 51" fill="none" xmlns="http://www.w3.org/2000/svg">
<path d="M0.546875 0.724609H51.3711V26.8411C51.3711 40.0959 40.6259 50.8411 27.3711 50.8411H0.546875V0.724609Z" fill="#F4428D" fill-opacity="0.87"/>
<path d="M17.8887 28.6731L29.8387 16.7231M25.0597 31.0731L26.2597 29.8731M27.7517 28.3821L30.1417 25.9921" stroke="white" stroke-width="1.5" stroke-miterlimit="10" stroke-linecap="round" stroke-linejoin="round"/>
<path d="M15.9593 34.791H35.9593M17.5603 23.032L24.2003 16.392C26.3203 14.272 27.3803 14.262 29.4803 16.362L34.3903 21.272C36.4903 23.372 36.4803 24.432 34.3603 26.552L27.7203 33.192C25.6003 35.312 24.5403 35.322 22.4403 33.222L17.5303 28.312C15.4303 26.212 15.4303 25.162 17.5603 23.032Z" stroke="white" stroke-width="1.5" stroke-linecap="round" stroke-linejoin="round"/>
</svg>
