<svg width="52" height="51" viewBox="0 0 52 51" fill="none" xmlns="http://www.w3.org/2000/svg">
<path d="M0.240234 0H51.0645V26.1165C51.0645 39.3713 40.3193 50.1165 27.0645 50.1165H0.240234V0Z" fill="#F48242" fill-opacity="0.87"/>
<path d="M22.4022 14.5081C23.0922 13.9181 24.2222 13.9181 24.9222 14.5081L26.5022 15.8681C26.8022 16.1281 27.3622 16.3381 27.7622 16.3381H29.4622C30.5222 16.3381 31.3922 17.2081 31.3922 18.2681V19.9681C31.3922 20.3581 31.6022 20.9281 31.8622 21.2281L33.2222 22.8081C33.8122 23.4981 33.8122 24.6281 33.2222 25.3281L31.8622 26.9081C31.6022 27.2081 31.3922 27.7681 31.3922 28.1681V29.8681C31.3922 30.9281 30.5222 31.7981 29.4622 31.7981H27.7622C27.3722 31.7981 26.8022 32.0081 26.5022 32.2681L24.9222 33.6281C24.2322 34.2181 23.1022 34.2181 22.4022 33.6281L20.8222 32.2681C20.5222 32.0081 19.9622 31.7981 19.5622 31.7981H17.8322C16.7722 31.7981 15.9022 30.9281 15.9022 29.8681V28.1581C15.9022 27.7681 15.6922 27.2081 15.4422 26.9081L14.0922 25.3181C13.5122 24.6281 13.5122 23.5081 14.0922 22.8181L15.4422 21.2281C15.6922 20.9281 15.9022 20.3681 15.9022 19.9781V18.2681C15.9022 17.2081 16.7722 16.3381 17.8322 16.3381H19.5622C19.9522 16.3381 20.5222 16.1281 20.8222 15.8681L22.4022 14.5081Z" stroke="white" stroke-width="1.5" stroke-linecap="round" stroke-linejoin="round"/>
<path d="M21.5425 26.8781L22.9925 27.9981C23.1825 28.1881 23.6025 28.2781 23.8825 28.2781H25.6525C26.2125 28.2781 26.8225 27.8581 26.9625 27.2981L28.0825 23.8781C28.3125 23.2281 27.8925 22.6581 27.1925 22.6581H25.3225C25.0425 22.6581 24.8125 22.4281 24.8525 22.0981L25.0825 20.5981C25.1725 20.1781 24.8925 19.7081 24.4725 19.5681C24.1025 19.4281 23.6325 19.6181 23.4425 19.8981L21.5225 22.7481" stroke="white" stroke-width="1.5" stroke-miterlimit="10"/>
<path d="M19.1523 26.8781V22.2981C19.1523 21.6381 19.4323 21.4081 20.0923 21.4081H20.5623C21.2123 21.4081 21.5023 21.6381 21.5023 22.2981V26.8781C21.5023 27.5281 21.2223 27.7681 20.5623 27.7681H20.0923C19.4323 27.7681 19.1523 27.5381 19.1523 26.8781Z" stroke="white" stroke-width="1.5" stroke-linecap="round" stroke-linejoin="round"/>
</svg>
