<svg width="52" height="51" viewBox="0 0 52 51" fill="none" xmlns="http://www.w3.org/2000/svg">
<path d="M0.660156 0.179443H51.4844V26.2959C51.4844 39.5507 40.7392 50.2959 27.4844 50.2959H0.660156V0.179443Z" fill="#F19F00"/>
<path d="M18.002 28.1277L29.952 16.1777M25.173 30.5277L26.373 29.3277M27.865 27.8367L30.255 25.4467" stroke="white" stroke-width="1.5" stroke-miterlimit="10" stroke-linecap="round" stroke-linejoin="round"/>
<path d="M16.0725 34.2458H36.0725M17.6735 22.4868L24.3135 15.8468C26.4335 13.7268 27.4935 13.7168 29.5935 15.8168L34.5035 20.7268C36.6035 22.8268 36.5935 23.8868 34.4735 26.0068L27.8335 32.6468C25.7135 34.7668 24.6535 34.7768 22.5535 32.6768L17.6435 27.7668C15.5435 25.6668 15.5435 24.6168 17.6735 22.4868Z" stroke="white" stroke-width="1.5" stroke-linecap="round" stroke-linejoin="round"/>
</svg>
