<svg width="52" height="51" viewBox="0 0 52 51" fill="none" xmlns="http://www.w3.org/2000/svg">
<path d="M0.648438 0H51.4727V26.1165C51.4727 39.3713 40.7275 50.1165 27.4727 50.1165H0.648438V0Z" fill="#4285F4" fill-opacity="0.87"/>
<path d="M15.9902 28.9383L27.9402 16.9883M23.1612 31.3383L24.3612 30.1383M25.8532 28.6473L28.2432 26.2573" stroke="white" stroke-width="1.5" stroke-miterlimit="10" stroke-linecap="round" stroke-linejoin="round"/>
<path d="M14.0608 35.0562H34.0608M15.6618 23.2972L22.3018 16.6572C24.4218 14.5372 25.4818 14.5272 27.5818 16.6272L32.4918 21.5372C34.5918 23.6372 34.5818 24.6972 32.4618 26.8172L25.8218 33.4572C23.7018 35.5772 22.6418 35.5872 20.5418 33.4872L15.6318 28.5772C13.5318 26.4772 13.5318 25.4272 15.6618 23.2972Z" stroke="white" stroke-width="1.5" stroke-linecap="round" stroke-linejoin="round"/>
</svg>
