<svg width="135" height="44" viewBox="0 0 135 44" fill="none" xmlns="http://www.w3.org/2000/svg">
<g clip-path="url(#clip0_261_798)">
<path d="M47.6763 15.414H42.696V18.4234H47.3204V20.8047H42.696V24.339H47.6763V26.739H39.7939V13.0328H47.6763V15.414ZM49.4464 16.989C50.6571 16.3578 51.9835 16.0422 53.425 16.0422C54.8664 16.0422 55.9556 16.3516 56.6921 16.9703C57.4346 17.589 57.8061 18.5172 57.8061 19.7547V26.739H55.8122L55.2598 25.314H55.1847C54.7043 25.9266 54.2114 26.3484 53.7057 26.5797C53.2005 26.8109 52.5359 26.9266 51.7119 26.9266C50.7134 26.9266 49.9209 26.639 49.3342 26.064C48.7599 25.489 48.4731 24.6609 48.4731 23.5797C48.4731 22.4984 48.8569 21.6922 49.6242 21.1609C50.3918 20.6234 51.5685 20.3266 53.1534 20.2703L54.9695 20.214V19.7547C54.9695 18.6922 54.4267 18.1609 53.3407 18.1609C52.5043 18.1609 51.5214 18.414 50.3918 18.9203L49.4464 16.989ZM51.4031 23.6266C51.4031 24.4328 51.8649 24.8359 52.7883 24.8359C53.4561 24.8359 53.9865 24.6453 54.3799 24.264C54.773 23.8828 54.9695 23.3766 54.9695 22.7453V21.8828L53.8651 21.9203C53.0351 21.9453 52.4172 22.0953 52.0114 22.3703C51.6056 22.6453 51.4031 23.064 51.4031 23.6266ZM62.5347 24.8359C63.5703 24.8359 64.0884 24.5359 64.0884 23.9359C64.0884 23.6297 63.951 23.3859 63.6766 23.2047C63.4082 23.0234 62.7903 22.7172 61.8229 22.2859C61.0181 21.9484 60.425 21.6359 60.0443 21.3484C59.6701 21.0609 59.3953 20.7328 59.2208 20.364C59.0522 19.989 58.9679 19.5297 58.9679 18.9859C58.9679 18.0547 59.3266 17.3359 60.0443 16.8297C60.7685 16.3172 61.7794 16.0609 63.0775 16.0609C64.3755 16.0609 65.6145 16.3359 66.7939 16.8859L65.9324 18.9484C65.3273 18.6922 64.8061 18.5016 64.3691 18.3766C63.9386 18.2453 63.5048 18.1797 63.0683 18.1797C62.2255 18.1797 61.8041 18.4078 61.8041 18.864C61.8041 19.1203 61.9415 19.3453 62.2163 19.539C62.4907 19.7266 63.0587 19.9922 63.9198 20.3359C64.7873 20.6797 65.4116 20.9984 65.7922 21.2922C66.5347 21.8547 66.9062 22.6547 66.9062 23.6922C66.9062 24.7297 66.5315 25.5297 65.7826 26.0922C65.0338 26.6484 63.951 26.9266 62.5347 26.9266C61.118 26.9266 59.9321 26.7234 58.9771 26.3172V23.9547C59.5139 24.2047 60.113 24.414 60.7745 24.5828C61.4423 24.7516 62.029 24.8359 62.5347 24.8359ZM68.5925 31.3516C68.118 31.3516 67.6343 31.2984 67.1414 31.1922V28.9234C67.4721 29.0047 67.8464 29.0453 68.2646 29.0453C69.3194 29.0453 70.0559 28.4234 70.4737 27.1797L70.6422 26.664L66.486 16.2578H69.6126L71.588 22.1547C71.7502 22.6609 71.8656 23.2672 71.9343 23.9734H71.9902C72.053 23.3609 72.1872 22.7547 72.3929 22.1547L74.3308 16.2578H77.3918L72.964 28.0797C72.5582 29.1609 71.9811 29.9766 71.2322 30.5266C70.4897 31.0766 69.6094 31.3516 68.5925 31.3516ZM84.2042 16.2766C84.6535 16.2766 85.0621 16.314 85.4303 16.389L85.2151 17.8328C84.7905 17.739 84.4162 17.6922 84.0915 17.6922C83.2556 17.6922 82.5438 18.0297 81.9575 18.7047C81.3708 19.3734 81.0776 20.214 81.0776 21.2266V26.739H79.5235V16.464H80.806L80.9837 18.3672H81.0588C81.4394 17.6922 81.898 17.1766 82.4348 16.8203C82.9776 16.4578 83.5675 16.2766 84.2042 16.2766ZM90.5332 26.9266C89.0166 26.9266 87.8184 26.464 86.9385 25.539C86.065 24.6078 85.628 23.3172 85.628 21.6672C85.628 20.0172 86.0338 18.7078 86.845 17.739C87.6626 16.764 88.7358 16.2766 90.0651 16.2766C91.4007 16.2766 92.44 16.7047 93.1825 17.5609C93.9313 18.3922 94.306 19.5047 94.306 20.8984V21.8828H87.2381C87.2692 23.0828 87.572 23.9984 88.1463 24.6297C88.7203 25.2547 89.547 25.5672 90.627 25.5672C91.7066 25.5672 92.783 25.3359 93.8567 24.8734V26.2609C93.3135 26.4984 92.7922 26.6672 92.293 26.7672C91.8001 26.8734 91.2134 26.9266 90.5332 26.9266ZM92.6397 20.6172C92.6397 19.6422 92.4212 18.8953 91.9842 18.3766C91.5473 17.8516 90.9202 17.589 90.1026 17.589C89.2914 17.589 88.6392 17.8547 88.1463 18.3859C87.653 18.9172 87.3631 19.6609 87.2756 20.6172H92.6397ZM99.8769 26.739H98.0608L94.1666 16.464H95.8329L98.0421 22.5578C98.5537 24.0203 98.8473 24.9453 98.922 25.3328H98.997C99.0593 25.0078 99.2682 24.3422 99.6241 23.3359C99.98 22.3234 100.807 20.0328 102.105 16.464H103.771L99.8769 26.739ZM104.137 13.6797C104.137 13.3359 104.222 13.0797 104.39 12.9109C104.558 12.7359 104.777 12.6484 105.045 12.6484C105.314 12.6484 105.535 12.7359 105.71 12.9109C105.885 13.0859 105.972 13.3422 105.972 13.6797C105.972 14.0172 105.885 14.2766 105.71 14.4578C105.535 14.6328 105.314 14.7203 105.045 14.7203C104.777 14.7203 104.558 14.6328 104.39 14.4578C104.222 14.2766 104.137 14.0172 104.137 13.6797ZM105.822 26.739H104.268V16.464H105.822V26.739ZM112.301 26.9266C110.785 26.9266 109.587 26.464 108.707 25.539C107.833 24.6078 107.396 23.3172 107.396 21.6672C107.396 20.0172 107.802 18.7078 108.613 17.739C109.43 16.764 110.504 16.2766 111.833 16.2766C113.169 16.2766 114.208 16.7047 114.951 17.5609C115.699 18.3922 116.074 19.5047 116.074 20.8984V21.8828H109.006C109.037 23.0828 109.34 23.9984 109.914 24.6297C110.488 25.2547 111.315 25.5672 112.395 25.5672C113.474 25.5672 114.551 25.3359 115.624 24.8734V26.2609C115.082 26.4984 114.56 26.6672 114.061 26.7672C113.568 26.8734 112.982 26.9266 112.301 26.9266ZM114.407 20.6172C114.407 19.6422 114.189 18.8953 113.752 18.3766C113.315 17.8516 112.688 17.589 111.871 17.589C111.059 17.589 110.407 17.8547 109.914 18.3859C109.421 18.9172 109.131 19.6609 109.044 20.6172H114.407ZM127.804 26.739H125.96L124.079 20.7109C123.991 20.4422 123.77 19.6047 123.414 18.1984H123.339C123.077 19.3297 122.858 20.1734 122.684 20.7297L120.746 26.739H118.949L116.15 16.464H117.779C118.528 19.3516 119.03 21.3172 119.286 22.3609C119.642 23.7484 119.841 24.6578 119.885 25.089H119.96C120.016 24.7703 120.128 24.3078 120.297 23.7016C120.465 23.089 120.596 22.6422 120.69 22.3609L122.572 16.464H124.256L126.091 22.3609C126.453 23.4797 126.69 24.3828 126.803 25.0703H126.878C126.909 24.8453 126.968 24.539 127.055 24.1516C127.143 23.7578 127.801 21.1953 129.031 16.464H130.641L127.804 26.739Z" fill="#333333"/>
<path d="M13.6027 41.5944C-0.100848 32.366 -3.73986 13.7596 5.47478 0.0357056L33.8596 19.1507L17.1751 44L13.6027 41.5944Z" fill="#4F46BA"/>
<path d="M8.94318 25.499C8.91762 25.499 8.7259 25.6014 8.36803 25.8062C7.4478 26.3182 6.7704 26.5742 6.33584 26.5742C5.56898 26.5742 5.18555 26.1902 5.18555 25.4222C5.18555 24.9358 5.56898 24.539 6.33584 24.2318C6.46365 24.1806 6.7704 24.027 7.25608 23.771C7.74176 23.515 8.02294 23.3614 8.09963 23.3102C7.99738 23.0798 7.94626 22.7342 7.94626 22.2734C7.94626 19.9694 8.75146 17.9982 10.3619 16.3598C11.9723 14.7214 13.4421 13.9022 14.7713 13.9022C16.1006 13.9022 17.1486 14.2222 17.9155 14.8622C18.6824 15.4766 19.0658 16.2318 19.0658 17.1278C19.0658 17.9982 18.8613 18.7534 18.4523 19.3934C18.0433 20.0334 17.4042 20.6606 16.5351 21.275C15.3337 22.1454 13.5827 23.1566 11.2821 24.3086C12.3046 25.051 13.7233 25.4222 15.5382 25.4222C17.3531 25.4222 19.1425 25.1278 20.9063 24.539C21.4431 24.3598 21.7498 24.2702 21.8265 24.2702C22.5934 24.2702 22.9768 24.6542 22.9768 25.4222C22.9768 25.9854 22.5934 26.395 21.8265 26.651C19.6793 27.3678 17.6087 27.7262 15.6149 27.7262C12.7775 27.7262 10.5536 26.9838 8.94318 25.499ZM10.2468 22.2734C14.5924 20.0974 16.7652 18.459 16.7652 17.3582C16.7652 16.5902 16.1261 16.2062 14.848 16.2062C14.0812 16.2062 13.1226 16.8206 11.9723 18.0494C10.822 19.2526 10.2468 20.6606 10.2468 22.2734Z" fill="white"/>
</g>
<defs>
<clipPath id="clip0_261_798">
<rect width="135" height="44" fill="white"/>
</clipPath>
</defs>
</svg>
