<svg width="28" height="28" viewBox="0 0 28 28" fill="none" xmlns="http://www.w3.org/2000/svg">
<path d="M23.9886 4.06447C21.3149 1.42925 18.0641 0.111641 14.2363 0.111641C10.5047 0.111641 7.26357 1.42925 4.51294 4.06447C1.85848 6.71893 0.53125 9.96968 0.53125 13.8167C0.53125 17.6638 1.85848 20.9049 4.51294 23.5401C5.84016 24.8866 7.31647 25.906 8.94184 26.5985C10.5672 27.291 12.332 27.6372 14.2363 27.6372C18.1218 27.6372 21.3726 26.2715 23.9886 23.5401C26.6238 20.9049 27.9414 17.6686 27.9414 13.8311C27.9414 9.99372 26.6238 6.73817 23.9886 4.06447ZM23.123 4.93006C24.3348 6.18035 25.2389 7.53643 25.8352 8.9983C26.4314 10.4602 26.7296 12.0663 26.7296 13.8167C26.7296 17.356 25.5274 20.3182 23.123 22.7034C21.9112 23.9344 20.5599 24.8673 19.0692 25.5021C17.5784 26.1369 15.9627 26.4542 14.2219 26.4542C12.4811 26.4542 10.8846 26.1465 9.43234 25.531C7.98008 24.9154 6.65766 23.9729 5.46508 22.7034C4.25326 21.4916 3.32997 20.1403 2.69521 18.6496C2.06045 17.1588 1.74307 15.5431 1.74307 13.8023C1.74307 12.0615 2.04602 10.4602 2.65193 8.9983C3.25784 7.53643 4.19556 6.18035 5.46508 4.93006C6.6769 3.71824 8.02336 2.79014 9.50447 2.14576C10.9856 1.50138 12.5725 1.1792 14.2652 1.1792C15.9579 1.1792 17.5544 1.49658 19.0547 2.13134C20.4781 2.7661 21.8342 3.69901 23.123 4.93006ZM12.4475 10.7006V17.9138L18.3334 14.3072L12.4475 10.7006Z" fill="#4F46BA"/>
</svg>
