<svg width="17" height="17" viewBox="0 0 17 17" fill="none" xmlns="http://www.w3.org/2000/svg">
<path d="M13.7395 7.2277V14.5877C13.7395 14.7978 13.6981 15.0059 13.6177 15.2C13.5373 15.3941 13.4194 15.5705 13.2708 15.7191C13.1222 15.8676 12.9459 15.9855 12.7517 16.0659C12.5576 16.1463 12.3496 16.1877 12.1395 16.1877H2.53945C2.11511 16.1877 1.70814 16.0191 1.40808 15.7191C1.10802 15.419 0.939453 15.012 0.939453 14.5877V4.9877C0.939453 4.56335 1.10802 4.15638 1.40808 3.85632C1.70814 3.55627 2.11511 3.3877 2.53945 3.3877H9.23865" stroke="#353535" stroke-width="1.5" stroke-linecap="round" stroke-linejoin="round"/>
<path d="M16.7769 0.397512C16.7184 0.333288 16.6476 0.281582 16.5686 0.245518C16.4896 0.209454 16.4041 0.18978 16.3173 0.187687C16.2304 0.185593 16.1441 0.201122 16.0635 0.233336C15.9828 0.265551 15.9095 0.31378 15.8481 0.375112L15.3533 0.867512C15.2933 0.927517 15.2596 1.00888 15.2596 1.09371C15.2596 1.17854 15.2933 1.25991 15.3533 1.31991L15.8069 1.77271C15.8366 1.80258 15.8719 1.82629 15.9109 1.84246C15.9498 1.85864 15.9915 1.86696 16.0337 1.86696C16.0758 1.86696 16.1175 1.85864 16.1565 1.84246C16.1954 1.82629 16.2307 1.80258 16.2605 1.77271L16.7429 1.29271C16.9869 1.04911 17.0097 0.652312 16.7769 0.397512ZM14.3529 1.86751L7.13207 9.07551C7.08829 9.11911 7.05647 9.17325 7.03967 9.23271L6.70567 10.2275C6.69767 10.2545 6.6971 10.2832 6.70403 10.3104C6.71095 10.3377 6.72512 10.3626 6.74503 10.3826C6.76493 10.4025 6.78985 10.4166 6.81714 10.4236C6.84442 10.4305 6.87308 10.4299 6.90007 10.4219L7.89407 10.0879C7.95353 10.0711 8.00767 10.0393 8.05127 9.99551L15.2593 2.77391C15.326 2.70651 15.3634 2.61553 15.3634 2.52071C15.3634 2.4259 15.326 2.33491 15.2593 2.26751L14.8613 1.86751C14.7938 1.80022 14.7024 1.76243 14.6071 1.76243C14.5118 1.76243 14.4204 1.80022 14.3529 1.86751Z" fill="#353535"/>
</svg>
