<svg width="14" height="15" viewBox="0 0 14 15" fill="none" xmlns="http://www.w3.org/2000/svg">
<path d="M4.41992 3.98242V9.98242C4.41992 10.3802 4.57796 10.7618 4.85926 11.0431C5.14057 11.3244 5.5221 11.4824 5.91992 11.4824H10.4199M4.41992 3.98242V2.48242C4.41992 2.0846 4.57796 1.70307 4.85926 1.42176C5.14057 1.14046 5.5221 0.982422 5.91992 0.982422H9.35942C9.55832 0.982464 9.74905 1.06151 9.88967 1.20217L13.2002 4.51267C13.3408 4.65329 13.4199 4.84403 13.4199 5.04292V9.98242C13.4199 10.3802 13.2619 10.7618 12.9806 11.0431C12.6993 11.3244 12.3177 11.4824 11.9199 11.4824H10.4199M4.41992 3.98242H2.91992C2.5221 3.98242 2.14057 4.14046 1.85926 4.42176C1.57796 4.70307 1.41992 5.0846 1.41992 5.48242V12.9824C1.41992 13.3802 1.57796 13.7618 1.85926 14.0431C2.14057 14.3244 2.5221 14.4824 2.91992 14.4824H8.91992C9.31775 14.4824 9.69928 14.3244 9.98058 14.0431C10.2619 13.7618 10.4199 13.3802 10.4199 12.9824V11.4824" stroke="#353535" stroke-linecap="round" stroke-linejoin="round"/>
</svg>
